<svg width="60" height="60" viewBox="0 0 60 60" fill="none" xmlns="http://www.w3.org/2000/svg">
<path d="M30.0946 16.6785C32.0026 14.3027 35.2155 13.7245 38.0948 14.2733C42.9079 15.1886 45.4715 19.3586 46.1191 23.9476C46.2062 24.5614 46.2756 25.1725 46.2934 25.7844C46.3154 26.5399 46.3079 27.2498 46.2712 27.9139C46.2261 28.7234 46.1155 29.5776 45.9394 30.4766C45.073 34.8993 42.2444 38.5267 37.6251 39.2845C35.989 39.5532 34.4377 39.4565 32.9712 38.9946C31.8178 38.631 30.8432 38.0155 30.0474 37.1479C30.0436 37.144 30.0387 37.1412 30.0333 37.1399C30.028 37.1387 30.0223 37.139 30.0172 37.1409C30.012 37.1428 30.0075 37.1461 30.0041 37.1505C30.0008 37.1549 29.9989 37.1602 29.9985 37.1657C29.9229 38.468 28.9764 39.3948 27.6769 39.4304C27.1586 39.4446 26.6195 39.4467 26.0597 39.4366C26.0404 39.4364 26.0216 39.43 26.0062 39.4185C25.9909 39.4069 25.9797 39.3909 25.9744 39.3726L22.7828 28.9315C22.7627 28.8649 22.7526 28.7957 22.7526 28.7261C22.7437 21.6408 22.744 14.5203 22.7534 7.36449C22.754 6.77741 22.9198 6.28107 23.2507 5.87545C23.7524 5.26169 24.3901 4.99217 25.1969 5.00017C25.9696 5.00848 26.7361 5.00877 27.4963 5.00106C27.8936 4.9975 28.2281 5.04495 28.4997 5.14338C29.4052 5.47339 29.9896 6.35134 29.9914 7.32802C29.9961 10.4763 29.9988 13.5819 29.9994 16.6447C29.9994 16.7461 30.0311 16.7574 30.0946 16.6785ZM30.655 23.1435C30.1417 24.4315 29.9825 25.7729 30.0083 27.1445C30.0536 29.6334 30.9529 32.4718 33.5734 33.3462C34.5418 33.6688 35.5336 33.7257 36.5488 33.517C39.3161 32.9459 40.6628 30.3316 40.8292 27.7218C40.959 25.6679 40.6984 23.3988 39.4309 21.7149C38.7946 20.8687 37.9406 20.3104 36.8691 20.04C35.9552 19.8093 35.018 19.8043 34.0573 20.0249C32.4206 20.4011 31.2705 21.5966 30.655 23.1435Z" fill="#4D4D4D"/>
<path d="M10.1131 46.6714C10.0956 46.6714 10.0786 46.6771 10.0646 46.6875C10.0507 46.6979 10.0405 46.7126 10.0357 46.7292C9.29267 49.2768 8.54874 51.813 7.80393 54.3381C7.7215 54.6197 7.54567 54.8955 7.27645 55.1653C6.89752 55.5466 6.43319 55.7349 5.88348 55.7301C4.86469 55.7212 3.77919 55.7236 2.62698 55.7373C2.26288 55.742 1.99603 55.7038 1.82643 55.6225C1.21088 55.3299 0.872871 54.6085 1.04455 53.952C1.11037 53.7012 1.18479 53.448 1.26781 53.1924C4.43862 43.4605 7.66605 33.533 10.9501 23.4098C11.0355 23.1465 11.1259 22.9061 11.2214 22.6884C11.5031 22.0426 11.9728 21.6142 12.6304 21.4031C12.8984 21.3171 13.2809 21.2774 13.7779 21.2839C14.6597 21.2958 15.4866 21.2975 16.2587 21.2892C17.4263 21.2774 18.2207 21.7974 18.6417 22.8494C18.6969 22.9876 18.7888 23.2678 18.9175 23.69C21.9792 33.7314 24.9987 43.6198 27.9762 53.3552C28.1215 53.8296 28.1906 54.1631 28.1835 54.3559C28.1586 55.0372 27.6169 55.7195 26.8848 55.723C25.6899 55.7296 24.5226 55.7301 23.3828 55.7248C22.7361 55.7221 22.1277 55.3281 21.7977 54.8033C21.6684 54.5981 21.5501 54.3084 21.4428 53.9342C20.7294 51.4513 20.032 49.0526 19.3506 46.7381C19.3451 46.7191 19.3335 46.7024 19.3176 46.6905C19.3017 46.6786 19.2824 46.6722 19.2626 46.6723L10.1131 46.6714ZM11.6653 41.1822C11.6641 41.1867 11.6639 41.1915 11.6648 41.196C11.6657 41.2006 11.6676 41.2049 11.6705 41.2086C11.6733 41.2123 11.677 41.2153 11.6812 41.2174C11.6854 41.2194 11.69 41.2205 11.6946 41.2205L17.7113 41.2311C17.716 41.2312 17.7206 41.2301 17.7248 41.2281C17.729 41.226 17.7326 41.223 17.7355 41.2193C17.7383 41.2156 17.7403 41.2113 17.7412 41.2067C17.7421 41.2021 17.7419 41.1974 17.7406 41.1929L14.7501 30.8933C14.7482 30.8871 14.7444 30.8817 14.7392 30.8778C14.734 30.874 14.7277 30.8719 14.7212 30.8719C14.7147 30.8719 14.7084 30.874 14.7032 30.8778C14.698 30.8817 14.6942 30.8871 14.6923 30.8933L11.6653 41.1822Z" fill="#4D4D4D"/>
<path d="M49.5342 37.6834C45.6942 37.9031 44.8767 41.4753 45.035 44.6696C45.0866 45.702 45.2708 46.6194 45.5874 47.4217C46.2338 49.0596 47.4246 49.9838 49.1597 50.1943C51.1202 50.4321 52.8956 49.9639 54.4861 48.7898C54.7873 48.5674 55.0373 48.4177 55.2359 48.3406C56.008 48.0426 56.6805 48.4171 57.2587 48.9979C57.7206 49.4628 58.1268 49.8735 58.4773 50.2299C59.1151 50.8775 59.1889 51.9938 58.5298 52.6387C58.2398 52.9233 57.8855 53.2101 57.4668 53.4988C55.2158 55.0549 52.6715 55.7988 49.8339 55.7306C48.655 55.7022 47.5817 55.5506 46.6139 55.2761C42.4644 54.1002 40.0538 50.8846 39.3164 46.7501C39.0768 45.407 39.0122 44.0434 39.1225 42.6593C39.1634 42.154 39.2568 41.6737 39.3137 41.1711C39.3158 41.1519 39.3236 41.1339 39.336 41.1193C39.3484 41.1047 39.3648 41.0942 39.3831 41.0893C42.1815 40.327 44.5769 38.3896 46.1069 35.9319C46.7752 34.8586 47.2911 33.7019 47.6546 32.4619C47.6603 32.4432 47.671 32.4264 47.6856 32.4133C47.7002 32.4003 47.7181 32.3916 47.7374 32.3881C51.5 31.7361 55.2511 32.5803 58.2265 34.9953C58.9043 35.5459 59.2138 36.3455 58.8376 37.1657C58.7154 37.4307 58.4471 37.7548 58.0326 38.1379C57.7888 38.3632 57.5543 38.5987 57.329 38.8442C57.0787 39.117 56.8445 39.3153 56.6262 39.4393C55.8817 39.8591 55.1657 39.6679 54.5288 39.1662C53.1311 38.0667 51.4662 37.5725 49.5342 37.6834Z" fill="#4D4D4D"/>
</svg>
